<svg xmlns="http://www.w3.org/2000/svg" height="48" viewBox="0 -960 960 960" width="48"><path d="M239.179-103.078q-22.637 0-39.369-16.732t-16.732-39.334v-482.635q0-22.602 16.732-39.334 16.732-16.732 39.454-16.732h99.16v-17.308q0-59.615 41.276-100.692 41.277-41.077 100.596-41.077t100.712 41.114q41.393 41.113 41.393 100.655v17.308h98.406q22.651 0 39.383 16.732 16.732 16.732 16.732 39.334v482.635q0 22.602-16.732 39.334-16.732 16.732-39.369 16.732H239.179Zm.053-43.845h481.536q4.616 0 8.462-3.847 3.847-3.846 3.847-8.462v-482.459q0-4.616-3.847-8.462-3.846-3.847-8.462-3.847h-98.499v97.732q0 9.547-6.413 15.908-6.413 6.36-16.038 6.36t-15.51-6.36q-5.884-6.361-5.884-15.908V-654H382.269v97.732q0 9.547-6.413 15.908-6.413 6.36-16.038 6.36t-15.51-6.36q-5.884-6.361-5.884-15.908V-654h-99.192q-4.616 0-8.462 3.847-3.847 3.846-3.847 8.462v482.459q0 4.616 3.847 8.462 3.846 3.847 8.462 3.847Zm143.037-550.922h196.155v-17.308q0-41.385-28.412-69.654-28.411-28.27-69.904-28.27-41.493 0-69.666 28.297-28.173 28.296-28.173 69.627v17.308ZM226.923-146.923V-654v507.077Z"/></svg>